<svg width="32" height="32" viewBox="0 0 32 32" fill="none" xmlns="http://www.w3.org/2000/svg">
  <rect width="32" height="32" rx="8" fill="#3B82F6"/>
  <path d="M24 12c0-2.5-2-4.5-4.5-4.5S15 9.5 15 12h-3c-1.7 0-3 1.3-3 3v2c0 1.7 1.3 3 3 3h3c0 2.5 2 4.5 4.5 4.5S24 20.5 24 18h3v-6h-3z" fill="white"/>
  <circle cx="19.5" cy="15" r="1.5" fill="#3B82F6"/>
  <path d="M8 16c0 4.4 3.6 8 8 8s8-3.6 8-8-3.6-8-8-8-8 3.6-8 8zm14.5 0c0 3.6-2.9 6.5-6.5 6.5S9.5 19.6 9.5 16s2.9-6.5 6.5-6.5 6.5 2.9 6.5 6.5z" fill="white" fill-opacity="0.4"/>
  <path d="M15 12h-3c-1.7 0-3 1.3-3 3v2c0 1.7 1.3 3 3 3h3c0 2.5 2 4.5 4.5 4.5S24 20.5 24 18" stroke="white" stroke-width="2" stroke-linecap="round"/>
</svg>